<svg width="28" height="27" viewBox="0 0 28 27" fill="none" xmlns="http://www.w3.org/2000/svg">
    <path d="M12.244 0.0954976C5.89734 0.785357 0.79238 5.89031 0.102521 12.099C-0.72531 18.9976 3.55182 24.9304 9.62258 26.862V23.6887C9.62258 23.6887 9.07069 23.8266 8.38083 23.8266C6.44922 23.8266 5.62139 22.171 5.48342 21.2052C5.34545 20.6533 5.06951 20.2394 4.65559 19.8255C4.24167 19.6875 4.1037 19.6875 4.1037 19.5495C4.1037 19.2736 4.51762 19.2736 4.65559 19.2736C5.48342 19.2736 6.17328 20.2394 6.44922 20.6533C7.13908 21.7571 7.96691 22.033 8.38083 22.033C8.93272 22.033 9.34663 21.895 9.62258 21.7571C9.76055 20.7913 10.1745 19.8255 11.0023 19.2736C7.82894 18.5837 5.48342 16.7901 5.48342 13.7547C5.48342 12.237 6.17328 10.7193 7.13908 9.61555C7.00111 9.33961 6.86314 8.64975 6.86314 7.68395C6.86314 7.13206 6.86314 6.30423 7.27705 5.4764C7.27705 5.4764 9.20866 5.4764 11.1403 7.27003C11.8301 6.99409 12.7959 6.85612 13.7617 6.85612C14.7275 6.85612 15.6933 6.99409 16.5212 7.27003C18.3148 5.4764 20.3844 5.4764 20.3844 5.4764C20.6603 6.30423 20.6603 7.13206 20.6603 7.68395C20.6603 8.78772 20.5223 9.33961 20.3844 9.61555C21.3502 10.7193 22.04 12.099 22.04 13.7547C22.04 16.7901 19.6945 18.5837 16.5212 19.2736C17.349 19.9634 17.9009 21.2052 17.9009 22.4469V27C23.5577 25.2064 27.5589 19.9634 27.5589 13.8927C27.5589 5.61437 20.5223 -0.870305 12.244 0.0954976Z" fill="#0D0D0D"/>
</svg>
