<svg width="46" height="46" viewBox="0 0 46 46" fill="none" xmlns="http://www.w3.org/2000/svg">
    <path d="M46 23C46 35.7025 35.7025 46 23 46C10.2975 46 0 35.7025 0 23C0 10.2975 10.2975 0 23 0C35.7025 0 46 10.2975 46 23Z" fill="black"/>
    <path d="M29.4886 16.3636C29.3352 15.0682 28.7131 14.0625 27.6222 13.3466C26.5313 12.6307 25.1932 12.2727 23.608 12.2727C22.4489 12.2727 21.4347 12.4602 20.5653 12.8352C19.7045 13.2102 19.0312 13.7259 18.5455 14.3821C18.0682 15.0384 17.8295 15.7841 17.8295 16.6193C17.8295 17.3182 17.9957 17.919 18.3281 18.4219C18.669 18.9162 19.1037 19.3295 19.6321 19.6619C20.1605 19.9858 20.7145 20.2543 21.294 20.4673C21.8736 20.6719 22.4062 20.8381 22.892 20.9659L25.5511 21.6818C26.233 21.8608 26.9915 22.108 27.8267 22.4233C28.6705 22.7386 29.4759 23.169 30.2429 23.7145C31.0185 24.2514 31.6577 24.9418 32.1605 25.7855C32.6634 26.6293 32.9148 27.6648 32.9148 28.892C32.9148 30.3068 32.544 31.5852 31.8026 32.7273C31.0696 33.8693 29.9957 34.777 28.581 35.4503C27.1747 36.1236 25.4659 36.4602 23.4545 36.4602C21.5795 36.4602 19.956 36.1577 18.5838 35.5526C17.2202 34.9474 16.1463 34.1037 15.3622 33.0213C14.5866 31.9389 14.1477 30.6818 14.0455 29.25H17.3182C17.4034 30.2386 17.7358 31.0568 18.3153 31.7045C18.9034 32.3438 19.6449 32.821 20.5398 33.1364C21.4432 33.4432 22.4148 33.5966 23.4545 33.5966C24.6648 33.5966 25.7514 33.4006 26.7145 33.0085C27.6776 32.608 28.4403 32.054 29.0028 31.3466C29.5653 30.6307 29.8466 29.7955 29.8466 28.8409C29.8466 27.9716 29.6037 27.2642 29.1179 26.7188C28.6321 26.1733 27.9929 25.7301 27.2003 25.3892C26.4077 25.0483 25.5511 24.75 24.6307 24.4943L21.4091 23.5739C19.3636 22.9858 17.7443 22.1463 16.5511 21.0554C15.358 19.9645 14.7614 18.5369 14.7614 16.7727C14.7614 15.3068 15.1577 14.0284 15.9503 12.9375C16.7514 11.8381 17.8253 10.9858 19.1719 10.3807C20.527 9.76704 22.0398 9.46023 23.7102 9.46023C25.3977 9.46023 26.8977 9.76278 28.2102 10.3679C29.5227 10.9645 30.5625 11.7827 31.3295 12.8224C32.1051 13.8622 32.5142 15.0426 32.5568 16.3636H29.4886Z" fill="white"/>
</svg>
